<?xml version="1.0" encoding="UTF-8"?>
<svg xmlns="http://www.w3.org/2000/svg" xmlns:xlink="http://www.w3.org/1999/xlink" width="7pt" height="8pt" viewBox="0 0 7 8" version="1.1">
<g id="surface1">
<path style=" stroke:none;fill-rule:nonzero;fill:rgb(81,98,120);fill-opacity:1;" d="M 2.976562 1.046875 L 3.324219 0.699219 C 3.46875 0.550781 3.707031 0.550781 3.851562 0.699219 L 6.890625 3.734375 C 7.039062 3.882812 7.039062 4.117188 6.890625 4.265625 L 3.851562 7.300781 C 3.707031 7.449219 3.46875 7.449219 3.324219 7.300781 L 2.976562 6.953125 C 2.828125 6.804688 2.832031 6.5625 2.984375 6.417969 L 4.867188 4.625 L 0.375 4.625 C 0.167969 4.625 0 4.457031 0 4.25 L 0 3.75 C 0 3.542969 0.167969 3.375 0.375 3.375 L 4.867188 3.375 L 2.984375 1.582031 C 2.828125 1.4375 2.828125 1.195312 2.976562 1.046875 Z M 2.976562 1.046875 "/>
</g>
</svg>

