<svg xmlns="http://www.w3.org/2000/svg" width="22" height="20" viewBox="0 0 22 20">
  <path id="Forma_1" data-name="Forma 1" class="cls-1" d="M1119.81,1325.63h2.34l3.32,12.04a0.816,0.816,0,0,0,.79.59h10.21a0.827,0.827,0,0,0,.75-0.48l3.71-8.56a0.829,0.829,0,0,0-.06-0.78,0.819,0.819,0,0,0-.68-0.37H1128.9a0.82,0.82,0,0,0,0,1.64h10.04l-3.01,6.92h-9.06l-3.33-12.03a0.8,0.8,0,0,0-.78-0.6h-2.95A0.815,0.815,0,0,0,1119.81,1325.63Zm5.67,18.37a1.85,1.85,0,1,0-1.84-1.85A1.852,1.852,0,0,0,1125.48,1344Zm11.53,0h0.14a1.867,1.867,0,0,0,1.71-1.99A1.845,1.845,0,1,0,1137.01,1344Z" transform="translate(-1119 -1324)"/>
</svg>
