<?xml version="1.0" encoding="UTF-8"?>
<svg xmlns="http://www.w3.org/2000/svg" xmlns:xlink="http://www.w3.org/1999/xlink" width="20pt" height="20pt" viewBox="0 0 20 20" version="1.1">
<g id="surface1">
<path style=" stroke:none;fill-rule:nonzero;fill:rgb(163,187,200);fill-opacity:1;" d="M 5.625 8.125 C 4.933594 8.125 4.375 8.683594 4.375 9.375 C 4.375 10.066406 4.933594 10.625 5.625 10.625 C 6.316406 10.625 6.875 10.066406 6.875 9.375 C 6.875 8.683594 6.316406 8.125 5.625 8.125 Z M 10 8.125 C 9.308594 8.125 8.75 8.683594 8.75 9.375 C 8.75 10.066406 9.308594 10.625 10 10.625 C 10.691406 10.625 11.25 10.066406 11.25 9.375 C 11.25 8.683594 10.691406 8.125 10 8.125 Z M 14.375 8.125 C 13.683594 8.125 13.125 8.683594 13.125 9.375 C 13.125 10.066406 13.683594 10.625 14.375 10.625 C 15.066406 10.625 15.625 10.066406 15.625 9.375 C 15.625 8.683594 15.066406 8.125 14.375 8.125 Z M 10 1.25 C 4.476562 1.25 0 4.886719 0 9.375 C 0 11.234375 0.777344 12.9375 2.066406 14.308594 C 1.484375 15.847656 0.273438 17.152344 0.253906 17.167969 C -0.00390625 17.441406 -0.0742188 17.839844 0.0742188 18.183594 C 0.222656 18.527344 0.5625 18.75 0.9375 18.75 C 3.339844 18.75 5.234375 17.746094 6.371094 16.941406 C 7.5 17.296875 8.71875 17.5 10 17.5 C 15.523438 17.5 20 13.863281 20 9.375 C 20 4.886719 15.523438 1.25 10 1.25 Z M 10 15.625 C 8.957031 15.625 7.925781 15.464844 6.9375 15.152344 L 6.050781 14.871094 L 5.289062 15.410156 C 4.730469 15.804688 3.964844 16.246094 3.042969 16.542969 C 3.328125 16.070312 3.605469 15.539062 3.820312 14.972656 L 4.234375 13.875 L 3.429688 13.023438 C 2.722656 12.269531 1.875 11.023438 1.875 9.375 C 1.875 5.929688 5.519531 3.125 10 3.125 C 14.480469 3.125 18.125 5.929688 18.125 9.375 C 18.125 12.820312 14.480469 15.625 10 15.625 Z M 10 15.625 "/>
</g>
</svg>
