<?xml version="1.0" encoding="UTF-8"?>
<svg xmlns="http://www.w3.org/2000/svg" xmlns:xlink="http://www.w3.org/1999/xlink" width="20pt" height="15pt" viewBox="0 0 20 15" version="1.1">
<g>
<path style="fill:rgb(93,98,106);" d="M 18.125 1.875 L 1.875 1.875 C 0.839844 1.875 0 2.503906 0 3.28125 L 0 11.71875 C 0 12.496094 0.839844 13.125 1.875 13.125 L 18.125 13.125 C 19.160156 13.125 20 12.496094 20 11.71875 L 20 3.28125 C 20 2.503906 19.160156 1.875 18.125 1.875 Z M 18.125 3.28125 L 18.125 4.476562 C 17.25 5.011719 15.851562 5.84375 12.867188 7.597656 C 12.210938 7.984375 10.90625 8.917969 10 8.90625 C 9.09375 8.917969 7.789062 7.984375 7.132812 7.597656 C 4.148438 5.84375 2.75 5.011719 1.875 4.476562 L 1.875 3.28125 Z M 1.875 11.71875 L 1.875 6.28125 C 2.769531 6.816406 4.039062 7.566406 5.972656 8.703125 C 6.828125 9.207031 8.324219 10.320312 10 10.3125 C 11.667969 10.320312 13.144531 9.222656 14.027344 8.703125 C 15.960938 7.566406 17.230469 6.816406 18.125 6.28125 L 18.125 11.71875 Z M 1.875 11.71875 "/>
</g>
</svg>
