<?xml version="1.0" encoding="UTF-8"?>
<svg xmlns="http://www.w3.org/2000/svg" xmlns:xlink="http://www.w3.org/1999/xlink" width="13pt" height="14pt" viewBox="0 0 13 14" version="1.1">
<g id="surface1">
<path style="fill:rgb(255,255,255);" d="M 9.101562 8.3125 C 8.265625 8.3125 7.867188 8.75 6.5 8.75 C 5.132812 8.75 4.734375 8.3125 3.898438 8.3125 C 1.746094 8.3125 0 9.957031 0 11.988281 L 0 12.6875 C 0 13.414062 0.625 14 1.394531 14 L 11.605469 14 C 12.375 14 13 13.414062 13 12.6875 L 13 11.988281 C 13 9.957031 11.253906 8.3125 9.101562 8.3125 Z M 11.605469 12.6875 L 1.394531 12.6875 L 1.394531 11.988281 C 1.394531 10.6875 2.519531 9.625 3.898438 9.625 C 4.324219 9.625 5.011719 10.0625 6.5 10.0625 C 8 10.0625 8.671875 9.625 9.101562 9.625 C 10.480469 9.625 11.605469 10.6875 11.605469 11.988281 Z M 6.5 7.875 C 8.808594 7.875 10.679688 6.109375 10.679688 3.9375 C 10.679688 1.765625 8.808594 0 6.5 0 C 4.191406 0 2.320312 1.765625 2.320312 3.9375 C 2.320312 6.109375 4.191406 7.875 6.5 7.875 Z M 6.5 1.3125 C 8.035156 1.3125 9.285156 2.492188 9.285156 3.9375 C 9.285156 5.382812 8.035156 6.5625 6.5 6.5625 C 4.964844 6.5625 3.714844 5.382812 3.714844 3.9375 C 3.714844 2.492188 4.964844 1.3125 6.5 1.3125 Z M 6.5 1.3125 "/>
</g>
</svg>
